<svg width="18" height="18" viewBox="0 0 18 18" fill="none" xmlns="http://www.w3.org/2000/svg">
<path d="M12.72 4.6275C14.22 5.67 15.255 7.3275 15.465 9.24" stroke="white" stroke-width="1.5" stroke-linecap="round" stroke-linejoin="round"/>
<path d="M2.61749 9.27766C2.81249 7.37266 3.83249 5.71516 5.31749 4.66516" stroke="white" stroke-width="1.5" stroke-linecap="round" stroke-linejoin="round"/>
<path d="M6.1425 15.705C7.0125 16.1475 8.0025 16.395 9.045 16.395C10.05 16.395 10.995 16.17 11.8425 15.7575" stroke="white" stroke-width="1.5" stroke-linecap="round" stroke-linejoin="round"/>
<path d="M9.04502 5.7751C10.1965 5.7751 11.13 4.84162 11.13 3.6901C11.13 2.53859 10.1965 1.6051 9.04502 1.6051C7.89351 1.6051 6.96002 2.53859 6.96002 3.6901C6.96002 4.84162 7.89351 5.7751 9.04502 5.7751Z" stroke="white" stroke-width="1.5" stroke-linecap="round" stroke-linejoin="round"/>
<path d="M3.62254 14.9399C4.77405 14.9399 5.70754 14.0064 5.70754 12.8549C5.70754 11.7034 4.77405 10.7699 3.62254 10.7699C2.47102 10.7699 1.53754 11.7034 1.53754 12.8549C1.53754 14.0064 2.47102 14.9399 3.62254 14.9399Z" stroke="white" stroke-width="1.5" stroke-linecap="round" stroke-linejoin="round"/>
<path d="M14.3774 14.9399C15.5289 14.9399 16.4624 14.0064 16.4624 12.8549C16.4624 11.7034 15.5289 10.7699 14.3774 10.7699C13.2259 10.7699 12.2924 11.7034 12.2924 12.8549C12.2924 14.0064 13.2259 14.9399 14.3774 14.9399Z" stroke="white" stroke-width="1.5" stroke-linecap="round" stroke-linejoin="round"/>
</svg>
