<svg id="Layer_1" data-name="Layer 1" xmlns="http://www.w3.org/2000/svg" viewBox="0 0 52 18"><defs><style>.cls-1{fill:#1c1c1c;}.cls-2{fill:#ffb805;}.cls-3{fill:none;stroke:#ffb805;}</style></defs><path class="cls-1" d="M9,.5H43A8.5,8.5,0,0,1,51.5,9h0A8.5,8.5,0,0,1,43,17.5H9A8.5,8.5,0,0,1,.5,9h0A8.5,8.5,0,0,1,9,.5Z"/><path class="cls-2" d="M11.0703,9.64355h.5625a1.79417,1.79417,0,0,1-.2314.72365,1.35306,1.35306,0,0,1-.5303.5068,1.78822,1.78822,0,0,1-.8555.1846A1.6234,1.6234,0,0,1,9.333,10.918a1.51733,1.51733,0,0,1-.52442-.3985,1.86427,1.86427,0,0,1-.33984-.624,2.66332,2.66332,0,0,1-.11719-.81446v-.4248a2.635,2.635,0,0,1,.11719-.81152,1.83225,1.83225,0,0,1,.34277-.627,1.52923,1.52923,0,0,1,.542-.40136,1.73473,1.73473,0,0,1,.71188-.14063,1.691,1.691,0,0,1,.8174.18164,1.30106,1.30106,0,0,1,.5186.50391,1.81764,1.81764,0,0,1,.2314.74121h-.5625a1.56731,1.56731,0,0,0-.1523-.5127.79191.79191,0,0,0-.3164-.334,1.075,1.075,0,0,0-.5362-.11719,1.106,1.106,0,0,0-.50095.1084,1.009,1.009,0,0,0-.36035.30762,1.43162,1.43162,0,0,0-.2168.47754,2.4287,2.4287,0,0,0-.07324.61816v.43066a2.57886,2.57886,0,0,0,.06446.58887,1.56634,1.56634,0,0,0,.20214.48338.99959.99959,0,0,0,.34278.3281.98585.98585,0,0,0,.49216.1172,1.2239,1.2239,0,0,0,.5742-.1142.74763.74763,0,0,0,.3223-.3282A1.6649,1.6649,0,0,0,11.0703,9.64355Zm1.1074-.19335V9.38281a1.96319,1.96319,0,0,1,.0996-.63574,1.51227,1.51227,0,0,1,.2872-.51269,1.28037,1.28037,0,0,1,.4541-.33985,1.52,1.52,0,0,1,1.1982,0,1.27424,1.27424,0,0,1,.457.33985,1.48364,1.48364,0,0,1,.2901.51269,1.96319,1.96319,0,0,1,.0996.63574V9.4502a1.96281,1.96281,0,0,1-.0996.6357,1.52068,1.52068,0,0,1-.2901.5127,1.32834,1.32834,0,0,1-.4541.3399,1.42594,1.42594,0,0,1-.5976.1201,1.446,1.446,0,0,1-.6006-.1201,1.35881,1.35881,0,0,1-.457-.3399,1.55074,1.55074,0,0,1-.2872-.5127A1.96281,1.96281,0,0,1,12.1777,9.4502Zm.542-.06739V9.4502a1.751,1.751,0,0,0,.0557.44824,1.1802,1.1802,0,0,0,.167.36916.84567.84567,0,0,0,.2842.2549.82692.82692,0,0,0,.3955.0908.80342.80342,0,0,0,.3896-.0908.8181.8181,0,0,0,.2813-.2549,1.1802,1.1802,0,0,0,.167-.36916,1.67048,1.67048,0,0,0,.0586-.44824V9.38281a1.62712,1.62712,0,0,0-.0586-.44238,1.13845,1.13845,0,0,0-.17-.37207.807.807,0,0,0-.2812-.25781.78891.78891,0,0,0-.3926-.09375.79963.79963,0,0,0-.3926.09375.8433.8433,0,0,0-.2812.25781,1.17653,1.17653,0,0,0-.167.37207A1.70546,1.70546,0,0,0,12.7197,9.38281ZM16.2822,8.46V11h-.5449V7.83008h.5156Zm-.1113.835-.252-.00879a2.16647,2.16647,0,0,1,.085-.60058,1.4242,1.4242,0,0,1,.2432-.4834,1.0807,1.0807,0,0,1,.4013-.31641,1.28246,1.28246,0,0,1,.5567-.11426,1.25415,1.25415,0,0,1,.4101.06446.82661.82661,0,0,1,.3252.19629.90458.90458,0,0,1,.2139.3457,1.50645,1.50645,0,0,1,.0762.50977V11h-.542V8.91406a.80391.80391,0,0,0-.085-.39844.48551.48551,0,0,0-.2344-.21679.96775.96775,0,0,0-.7587.01465.678.678,0,0,0-.2579.23437,1.057,1.057,0,0,0-.1406.34277A1.91988,1.91988,0,0,0,16.1709,9.29492Zm2.0537-.29883-.3633.11133a1.59668,1.59668,0,0,1,.085-.501,1.35867,1.35867,0,0,1,.2432-.42774,1.15044,1.15044,0,0,1,.3955-.2959,1.23485,1.23485,0,0,1,.5361-.11133,1.38793,1.38793,0,0,1,.4512.06739.81535.81535,0,0,1,.3339.208.87176.87176,0,0,1,.2081.35449,1.68132,1.68132,0,0,1,.0703.51562V11h-.545V8.91113a.8304.8304,0,0,0-.0849-.41308.44266.44266,0,0,0-.2344-.208.93653.93653,0,0,0-.3574-.06152.7686.7686,0,0,0-.3164.06152A.6542.6542,0,0,0,18.415,8.46a.74178.74178,0,0,0-.1435.24316A.90168.90168,0,0,0,18.2246,8.99609Zm3.3692-1.166V11h-.545V7.83008Zm-.586-.84082a.32729.32729,0,0,1,.0791-.22266.30722.30722,0,0,1,.2402-.09082.30347.30347,0,0,1,.2374.09082.31391.31391,0,0,1,.0849.22266.297.297,0,0,1-.3223.30469.31278.31278,0,0,1-.2402-.0879A.31924.31924,0,0,1,21.0078,6.98926Zm1.9981,1.51758V11h-.542V7.83008h.5127Zm-.1289.78808-.2256-.00879a1.90525,1.90525,0,0,1,.0966-.60058,1.49859,1.49859,0,0,1,.2637-.4834,1.17537,1.17537,0,0,1,.4043-.31641,1.19293,1.19293,0,0,1,.5244-.11426,1.29279,1.29279,0,0,1,.4219.06446.76373.76373,0,0,1,.3193.19922.8875.8875,0,0,1,.2051.35742,1.73434,1.73434,0,0,1,.0703.53027V11h-.5449V8.917a.91334.91334,0,0,0-.0732-.39844.45049.45049,0,0,0-.2139-.21972.768.768,0,0,0-.3457-.07031.80182.80182,0,0,0-.3691.085.883.883,0,0,0-.2842.23437,1.17937,1.17937,0,0,0-.1846.34277A1.2518,1.2518,0,0,0,22.877,9.29492Zm4.957-1.46484h.4922V10.9326a1.41338,1.41338,0,0,1-.17.7149,1.10645,1.10645,0,0,1-.4746.4482,1.503,1.503,0,0,1-.6972.1553,1.709,1.709,0,0,1-.3867-.0528,1.55929,1.55929,0,0,1-.4336-.1728,1.083,1.083,0,0,1-.3545-.3252l.2842-.3223a1.145,1.145,0,0,0,.416.334,1.09866,1.09866,0,0,0,.4336.0938.961.961,0,0,0,.4453-.0967.67474.67474,0,0,0,.29-.2871.93265.93265,0,0,0,.1055-.4629V8.52734ZM25.6514,9.4502V9.38867a2.38711,2.38711,0,0,1,.0849-.65918,1.58615,1.58615,0,0,1,.2491-.51269,1.11737,1.11737,0,0,1,.3955-.32813,1.138,1.138,0,0,1,.5214-.11719,1.20621,1.20621,0,0,1,.5215.10547,1.00327,1.00327,0,0,1,.3809.30176,1.4774,1.4774,0,0,1,.249.47461,2.99487,2.99487,0,0,1,.126.62988v.26953a2.7617,2.7617,0,0,1-.126.627,1.47829,1.47829,0,0,1-.249.4746,1.04279,1.04279,0,0,1-.3809.3018,1.26455,1.26455,0,0,1-.5273.1025,1.10192,1.10192,0,0,1-.5156-.1201,1.17469,1.17469,0,0,1-.3926-.3369,1.59646,1.59646,0,0,1-.252-.5098A2.31845,2.31845,0,0,1,25.6514,9.4502Zm.542-.06153V9.4502a2.02558,2.02558,0,0,0,.0468.44531,1.21144,1.21144,0,0,0,.1494.36619.75593.75593,0,0,0,.2608.249.7666.7666,0,0,0,.3779.0879.80262.80262,0,0,0,.4453-.1142.82785.82785,0,0,0,.2784-.3018,1.73988,1.73988,0,0,0,.164-.40721v-.706a1.44173,1.44173,0,0,0-.0996-.31055.95718.95718,0,0,0-.1699-.26953.73464.73464,0,0,0-.2549-.19043.84569.84569,0,0,0-.3574-.07031.72522.72522,0,0,0-.6446.3457,1.20887,1.20887,0,0,0-.1494.36914A2.02558,2.02558,0,0,0,26.1934,9.38867Zm6.7998.53321a.69152.69152,0,0,0-.0469-.26368.502.502,0,0,0-.1582-.21093,1.24028,1.24028,0,0,0-.3106-.17872,4.32676,4.32676,0,0,0-.498-.17285,4.58239,4.58239,0,0,1-.5713-.208,1.99668,1.99668,0,0,1-.4365-.26661,1.05114,1.05114,0,0,1-.2783-.34277.97557.97557,0,0,1-.0967-.44238,1.03869,1.03869,0,0,1,.1025-.46,1.07619,1.07619,0,0,1,.293-.36621,1.42016,1.42016,0,0,1,.4599-.2461,1.89326,1.89326,0,0,1,.5948-.08789,1.66211,1.66211,0,0,1,.8144.18457,1.29228,1.29228,0,0,1,.5127.47754,1.198,1.198,0,0,1,.1758.62695h-.5625a.86073.86073,0,0,0-.1025-.4248.70651.70651,0,0,0-.3106-.293,1.13566,1.13566,0,0,0-.5273-.1084,1.189,1.189,0,0,0-.4981.09082.65809.65809,0,0,0-.2929.2461.67227.67227,0,0,0-.0938.35449.54264.54264,0,0,0,.0557.24609.65623.65623,0,0,0,.1787.20215,1.428,1.428,0,0,0,.3105.17285,3.96745,3.96745,0,0,0,.4541.15235,3.95868,3.95868,0,0,1,.627.22851,1.71941,1.71941,0,0,1,.4336.28418.97167.97167,0,0,1,.2549.35449,1.11165,1.11165,0,0,1,.0849.44532,1.04015,1.04015,0,0,1-.1054.47168,1.02624,1.02624,0,0,1-.3018.3603,1.45641,1.45641,0,0,1-.4717.2315,2.1841,2.1841,0,0,1-.6094.0791,2.11572,2.11572,0,0,1-.583-.082,1.73929,1.73929,0,0,1-.5185-.2461,1.29109,1.29109,0,0,1-.3721-.4043,1.1219,1.1219,0,0,1-.1377-.56253h.5625a.78766.78766,0,0,0,.085.37793.75057.75057,0,0,0,.2314.2578,1.079,1.079,0,0,0,.3369.1524,1.65165,1.65165,0,0,0,.3955.0468,1.35161,1.35161,0,0,0,.501-.082.6649.6649,0,0,0,.3106-.2344A.60564.60564,0,0,0,32.9932,9.92188Zm1.0634-.47168V9.38281a1.96319,1.96319,0,0,1,.0996-.63574,1.51227,1.51227,0,0,1,.2872-.51269,1.28037,1.28037,0,0,1,.4541-.33985,1.52,1.52,0,0,1,1.1982,0,1.27424,1.27424,0,0,1,.457.33985,1.48364,1.48364,0,0,1,.2901.51269,1.96319,1.96319,0,0,1,.0996.63574V9.4502a1.96281,1.96281,0,0,1-.0996.6357,1.52068,1.52068,0,0,1-.2901.5127,1.32834,1.32834,0,0,1-.4541.3399,1.42562,1.42562,0,0,1-.5976.1201,1.446,1.446,0,0,1-.6006-.1201,1.35881,1.35881,0,0,1-.457-.3399,1.55074,1.55074,0,0,1-.2872-.5127A1.96281,1.96281,0,0,1,34.0566,9.4502Zm.542-.06739V9.4502a1.751,1.751,0,0,0,.0557.44824,1.1802,1.1802,0,0,0,.167.36916.84567.84567,0,0,0,.2842.2549.8272.8272,0,0,0,.3955.0908.80342.80342,0,0,0,.3896-.0908.8181.8181,0,0,0,.2813-.2549,1.1802,1.1802,0,0,0,.167-.36916,1.67048,1.67048,0,0,0,.0586-.44824V9.38281a1.62712,1.62712,0,0,0-.0586-.44238,1.13845,1.13845,0,0,0-.17-.37207.807.807,0,0,0-.2812-.25781.78891.78891,0,0,0-.3926-.09375.79963.79963,0,0,0-.3926.09375.8433.8433,0,0,0-.2812.25781,1.17653,1.17653,0,0,0-.167.37207A1.70546,1.70546,0,0,0,34.5986,9.38281Zm2.8799.06739V9.38281a1.96319,1.96319,0,0,1,.0996-.63574,1.51039,1.51039,0,0,1,.2871-.51269,1.28125,1.28125,0,0,1,.4541-.33985,1.5202,1.5202,0,0,1,1.1983,0,1.27424,1.27424,0,0,1,.457.33985,1.48343,1.48343,0,0,1,.29.51269,1.96049,1.96049,0,0,1,.0997.63574V9.4502a1.96011,1.96011,0,0,1-.0997.6357,1.52046,1.52046,0,0,1-.29.5127,1.3293,1.3293,0,0,1-.4541.3399,1.42594,1.42594,0,0,1-.5976.1201,1.446,1.446,0,0,1-.6006-.1201,1.35919,1.35919,0,0,1-.4571-.3399,1.54876,1.54876,0,0,1-.2871-.5127A1.96281,1.96281,0,0,1,37.4785,9.4502Zm.542-.06739V9.4502a1.751,1.751,0,0,0,.0557.44824,1.17794,1.17794,0,0,0,.167.36916.84535.84535,0,0,0,.2841.2549.82761.82761,0,0,0,.3956.0908.80342.80342,0,0,0,.3896-.0908.819.819,0,0,0,.2813-.2549,1.18,1.18,0,0,0,.1669-.36916,1.66648,1.66648,0,0,0,.0586-.44824V9.38281a1.62323,1.62323,0,0,0-.0586-.44238,1.13829,1.13829,0,0,0-.1699-.37207.807.807,0,0,0-.2812-.25781.78918.78918,0,0,0-.3926-.09375.79963.79963,0,0,0-.3926.09375.84236.84236,0,0,0-.2812.25781,1.17431,1.17431,0,0,0-.167.37207A1.70546,1.70546,0,0,0,38.0205,9.38281Zm3.5654-.876V11h-.542V7.83008h.5127Zm-.1289.78808-.2256-.00879a1.9081,1.9081,0,0,1,.0967-.60058,1.49859,1.49859,0,0,1,.2637-.4834,1.17444,1.17444,0,0,1,.4043-.31641,1.19293,1.19293,0,0,1,.5244-.11426,1.29279,1.29279,0,0,1,.4219.06446.76436.76436,0,0,1,.3193.19922.8875.8875,0,0,1,.2051.35742,1.73434,1.73434,0,0,1,.0703.53027V11h-.5449V8.917a.91177.91177,0,0,0-.0733-.39844.4503.4503,0,0,0-.2138-.21972.768.768,0,0,0-.3457-.07031.80253.80253,0,0,0-.3692.085.88262.88262,0,0,0-.2841.23437,1.177,1.177,0,0,0-.1846.34277A1.25184,1.25184,0,0,0,41.457,9.29492Z"/><path class="cls-3" d="M9,.5H43A8.5,8.5,0,0,1,51.5,9h0A8.5,8.5,0,0,1,43,17.5H9A8.5,8.5,0,0,1,.5,9h0A8.5,8.5,0,0,1,9,.5Z"/></svg>