<svg width="21" height="21" viewBox="0 0 21 21" fill="none" xmlns="http://www.w3.org/2000/svg">
<path d="M13.2902 3.50416H13.2497L12.977 3.78144C15.7753 4.61329 17.1292 5.91236 17.1292 5.91236C15.3258 4.98623 13.7005 4.52317 12.0753 4.33601C10.9009 4.14884 9.72654 4.24728 8.73439 4.33601H8.46442C7.82998 4.33601 6.48012 4.61329 4.67131 5.35502C4.04092 5.63646 3.67916 5.82086 3.67916 5.82086C3.67916 5.82086 5.03172 4.43167 8.01222 3.68994L7.82998 3.50277C7.82998 3.50277 5.57301 3.41404 3.13651 5.26352C3.13651 5.26352 0.700012 9.6224 0.700012 14.9961C0.700012 14.9961 2.04987 17.4085 5.75255 17.5C5.75255 17.5 6.29249 16.761 6.83918 16.1108C4.7604 15.462 3.95048 14.1643 3.95048 14.1643C3.95048 14.1643 4.13136 14.2558 4.40268 14.4416H4.48368C4.52417 14.4416 4.54307 14.4624 4.56467 14.4832V14.4915C4.58627 14.5137 4.60516 14.5331 4.64566 14.5331C5.09111 14.7216 5.53657 14.9074 5.90103 15.0876C6.53007 15.3677 7.33863 15.6464 8.33078 15.8308C9.58615 16.0179 11.0251 16.108 12.6638 15.8308C13.4738 15.6436 14.2837 15.4606 15.0936 15.089C15.62 14.8117 16.268 14.5345 16.9793 14.0672C16.9793 14.0672 16.1694 15.3649 14.0029 16.0138C14.4484 16.6598 15.076 17.4002 15.076 17.4002C18.7801 17.317 20.219 14.9046 20.3 15.0072C20.3 9.64181 17.85 5.27461 17.85 5.27461C15.643 3.5915 13.5777 3.52773 13.2132 3.52773L13.2888 3.5L13.2902 3.50416ZM13.517 9.6224C14.4659 9.6224 15.2313 10.4542 15.2313 11.4733C15.2313 12.4992 14.4619 13.3311 13.517 13.3311C12.5721 13.3311 11.8026 12.4992 11.8026 11.4816C11.8053 10.4556 12.5761 9.62656 13.517 9.62656V9.6224ZM7.38453 9.6224C8.32943 9.6224 9.09345 10.4542 9.09345 11.4733C9.09345 12.4992 8.32403 13.3311 7.37913 13.3311C6.43423 13.3311 5.6648 12.4992 5.6648 11.4816C5.6648 10.4556 6.43423 9.62656 7.37913 9.62656L7.38453 9.6224Z" fill="white"/>
</svg>
