<svg width="18" height="18" viewBox="0 0 18 18" fill="none" xmlns="http://www.w3.org/2000/svg">
<path d="M16.2451 7.83001L15.5101 10.965C14.8801 13.6725 13.6351 14.7675 11.2951 14.5425C10.9201 14.5125 10.5151 14.445 10.0801 14.34L8.82014 14.04C5.69263 13.2975 4.72513 11.7525 5.46013 8.61751L6.19513 5.47501C6.34513 4.83751 6.52513 4.28251 6.75013 3.82501C7.62763 2.01001 9.12013 1.52251 11.6251 2.11501L12.8776 2.40751C16.0201 3.14251 16.9801 4.69501 16.2451 7.83001Z" stroke="white" stroke-width="1.5" stroke-linecap="round" stroke-linejoin="round"/>
<path d="M11.2949 14.5426C10.8299 14.8576 10.2449 15.1201 9.53239 15.3526L8.34739 15.7426C5.36989 16.7026 3.80239 15.9001 2.83489 12.9226L1.87489 9.96007C0.91489 6.98257 1.70989 5.40757 4.68739 4.44757L5.87239 4.05757C6.17989 3.96007 6.47239 3.87757 6.74989 3.82507C6.52489 4.28257 6.34489 4.83757 6.19489 5.47507L5.45989 8.61757C4.72489 11.7526 5.69239 13.2976 8.81989 14.0401L10.0799 14.3401C10.5149 14.4451 10.9199 14.5126 11.2949 14.5426Z" stroke="white" stroke-width="1.5" stroke-linecap="round" stroke-linejoin="round"/>
<path d="M9.4801 6.39752L13.1176 7.32002" stroke="white" stroke-width="1.5" stroke-linecap="round" stroke-linejoin="round"/>
<path d="M8.74512 9.29993L10.9201 9.85493" stroke="white" stroke-width="1.5" stroke-linecap="round" stroke-linejoin="round"/>
</svg>
