<svg width="21" height="21" viewBox="0 0 21 21" fill="none" xmlns="http://www.w3.org/2000/svg">
<path fill-rule="evenodd" clip-rule="evenodd" d="M13.3651 19.6H11.0046H8.6417C8.6417 19.6 8.6482 18.161 8.6417 17.1733C5.40869 17.888 4.50666 15.3533 4.50666 15.3533C3.91594 14.14 3.32522 13.5333 3.32522 13.5333C2.14378 12.8126 3.32522 12.9267 3.32522 12.9267C4.50666 12.9267 5.09738 14.14 5.09738 14.14C6.1341 15.9485 7.97892 15.6573 8.6417 15.3533C8.6417 14.7467 8.90044 13.8294 9.23242 13.5333C6.65216 13.2348 4.5043 11.7133 4.5043 8.67999C4.5043 5.64666 5.09738 5.03999 5.6881 4.43333C5.56878 4.13424 5.07435 3.02889 5.70642 1.39999C5.70642 1.39999 6.86718 1.39999 8.04862 3.21999C8.63402 2.61879 10.4115 2.61333 11.0028 2.61333C11.5929 2.61333 13.3704 2.61879 13.9558 3.21999C15.1373 1.39999 16.3004 1.39999 16.3004 1.39999C16.9325 3.02889 16.438 4.13424 16.3187 4.43333C16.9094 5.03999 17.5001 5.64666 17.5001 8.67999C17.5001 11.7133 15.3546 13.2348 12.7744 13.5333C13.1064 13.8294 13.3651 14.8741 13.3651 15.3533V19.6Z" fill="white"/>
</svg>
