<svg width="18" height="18" viewBox="0 0 18 18" fill="none" xmlns="http://www.w3.org/2000/svg">
<path d="M13.5 5.37C13.455 5.3625 13.4025 5.3625 13.3575 5.37C12.3225 5.3325 11.4975 4.485 11.4975 3.435C11.4975 2.3625 12.36 1.5 13.4325 1.5C14.505 1.5 15.3675 2.37 15.3675 3.435C15.36 4.485 14.535 5.3325 13.5 5.37Z" stroke="white" stroke-width="1.5" stroke-linecap="round" stroke-linejoin="round"/>
<path d="M12.7274 10.8299C13.7549 11.0024 14.8874 10.8224 15.6824 10.2899C16.7399 9.58494 16.7399 8.42994 15.6824 7.72494C14.8799 7.19244 13.7324 7.01243 12.7049 7.19243" stroke="white" stroke-width="1.5" stroke-linecap="round" stroke-linejoin="round"/>
<path d="M4.4775 5.37C4.5225 5.3625 4.575 5.3625 4.62 5.37C5.655 5.3325 6.48 4.485 6.48 3.435C6.48 2.3625 5.6175 1.5 4.545 1.5C3.4725 1.5 2.61 2.37 2.61 3.435C2.6175 4.485 3.4425 5.3325 4.4775 5.37Z" stroke="white" stroke-width="1.5" stroke-linecap="round" stroke-linejoin="round"/>
<path d="M5.25 10.83C4.2225 11.0025 3.09 10.8225 2.295 10.29C1.2375 9.585 1.2375 8.43 2.295 7.725C3.0975 7.1925 4.245 7.01249 5.2725 7.19249" stroke="white" stroke-width="1.5" stroke-linecap="round" stroke-linejoin="round"/>
<path d="M9.00006 10.9725C8.95506 10.965 8.90256 10.965 8.85756 10.9725C7.82256 10.935 6.99756 10.0875 6.99756 9.03748C6.99756 7.96498 7.86006 7.10248 8.93256 7.10248C10.0051 7.10248 10.8676 7.97248 10.8676 9.03748C10.8601 10.0875 10.0351 10.9425 9.00006 10.9725Z" stroke="white" stroke-width="1.5" stroke-linecap="round" stroke-linejoin="round"/>
<path d="M6.81766 13.3349C5.76016 14.0399 5.76016 15.1949 6.81766 15.8999C8.01766 16.7024 9.98266 16.7024 11.1827 15.8999C12.2402 15.1949 12.2402 14.0399 11.1827 13.3349C9.99016 12.5399 8.01766 12.5399 6.81766 13.3349Z" stroke="white" stroke-width="1.5" stroke-linecap="round" stroke-linejoin="round"/>
</svg>
