<svg width="21" height="21" viewBox="0 0 21 21" fill="none" xmlns="http://www.w3.org/2000/svg">
<path fill-rule="evenodd" clip-rule="evenodd" d="M7.00257 8.06298H3.09612V7.5663H3.09612C3.09612 12.3563 3.09612 15.3477 3.09612 15.3477C3.09612 17.5 5.24842 17.5 5.24842 17.5H15.3477C15.3477 17.5 17.5 17.5 17.5 15.3477V8.06298V8.06298V7.5663H13.2784C12.5988 6.6615 11.5168 6.07624 10.2981 6.07624C9.07932 6.07624 7.99729 6.6615 7.31767 7.5663H3.09612C3.09612 6.83427 3.09612 6.06023 3.09612 5.24843C3.09612 3.88986 3.95367 3.38884 4.58617 3.20408V6.07624H5.08286V3.10672C5.18617 3.09613 5.24842 3.09613 5.24842 3.09613H15.3477C15.3477 3.09613 17.5 3.09613 17.5 5.24843V8.06298H13.5935C13.8679 8.58195 14.0232 9.17353 14.0232 9.80138C14.0232 11.8587 12.3554 13.5265 10.2981 13.5265C8.24072 13.5265 6.57291 11.8587 6.57291 9.80138C6.57291 9.17353 6.72824 8.58195 7.00257 8.06298ZM14.8848 4.0895C14.409 4.0895 14.0232 4.47754 14.0232 4.95111V5.71132C14.0232 6.18717 14.4112 6.57293 14.8848 6.57293H15.645C16.1209 6.57293 16.5066 6.18489 16.5066 5.71132V4.95111C16.5066 4.47526 16.1186 4.0895 15.645 4.0895H14.8848ZM6.57291 3.09613V6.07624H7.0696V3.09613H6.57291ZM5.57954 3.09613V6.07624H6.07623V3.09613H5.57954ZM10.2981 12.7815C11.9439 12.7815 13.2782 11.4473 13.2782 9.80138C13.2782 8.15551 11.9439 6.82127 10.2981 6.82127C8.65218 6.82127 7.31794 8.15551 7.31794 9.80138C7.31794 11.4473 8.65218 12.7815 10.2981 12.7815ZM10.2981 11.7881C11.3953 11.7881 12.2848 10.8986 12.2848 9.80138C12.2848 8.70414 11.3953 7.81464 10.2981 7.81464C9.20081 7.81464 8.31131 8.70414 8.31131 9.80138C8.31131 10.8986 9.20081 11.7881 10.2981 11.7881Z" fill="white"/>
</svg>
