<svg width="21" height="21" viewBox="0 0 21 21" fill="none" xmlns="http://www.w3.org/2000/svg">
<path d="M18.6667 4.66084V14.371C18.6667 15.1632 18.0215 15.89 17.2293 15.988L16.9762 16.0207C15.6368 16.2003 13.7503 16.7557 12.2313 17.3927C11.7005 17.6132 11.1125 17.213 11.1125 16.6332V5.27334C11.1125 4.97117 11.284 4.69351 11.5535 4.54651C13.048 3.73801 15.3102 3.01934 16.8455 2.88867H16.8945C17.8745 2.88867 18.6667 3.68084 18.6667 4.66084Z" fill="white"/>
<path d="M9.44648 4.54651C7.95198 3.73801 5.68982 3.01934 4.15448 2.88867H4.09732C3.11732 2.88867 2.32515 3.68084 2.32515 4.66084V14.371C2.32515 15.1632 2.97032 15.89 3.76248 15.988L4.01565 16.0207C5.35498 16.2003 7.24148 16.7557 8.76048 17.3927C9.29132 17.6132 9.87932 17.213 9.87932 16.6332V5.27334C9.87932 4.96301 9.71598 4.69351 9.44648 4.54651ZM4.78332 7.02101H6.62082C6.95565 7.02101 7.23332 7.29867 7.23332 7.63351C7.23332 7.97651 6.95565 8.24601 6.62082 8.24601H4.78332C4.44848 8.24601 4.17082 7.97651 4.17082 7.63351C4.17082 7.29867 4.44848 7.02101 4.78332 7.02101ZM7.23332 10.696H4.78332C4.44848 10.696 4.17082 10.4265 4.17082 10.0835C4.17082 9.74867 4.44848 9.47101 4.78332 9.47101H7.23332C7.56815 9.47101 7.84582 9.74867 7.84582 10.0835C7.84582 10.4265 7.56815 10.696 7.23332 10.696Z" fill="white"/>
</svg>
