<svg width="21" height="21" viewBox="0 0 21 21" fill="none" xmlns="http://www.w3.org/2000/svg">
<path d="M19.5716 5.58032C18.9008 5.87851 18.1788 6.07964 17.4213 6.16965C18.1947 5.70663 18.7878 4.97321 19.0674 4.09829C18.344 4.5276 17.5432 4.83912 16.6901 5.00729C16.0074 4.27979 15.0344 3.82492 13.9576 3.82492C11.8903 3.82492 10.2141 5.50105 10.2141 7.56872C10.2141 7.86172 10.2471 8.14731 10.3112 8.42178C7.19969 8.26547 4.44083 6.77528 2.5943 4.51019C2.27204 5.06285 2.08757 5.70589 2.08757 6.39265C2.08757 7.69132 2.7484 8.83739 3.75296 9.50859C3.13956 9.48895 2.56208 9.32041 2.0572 9.04001C2.05683 9.05557 2.05683 9.0715 2.05683 9.08742C2.05683 10.901 3.34736 12.4138 5.06016 12.7582C4.74605 12.8434 4.41527 12.8894 4.07374 12.8894C3.83223 12.8894 3.59776 12.866 3.36921 12.822C3.84594 14.3092 5.22833 15.3919 6.86631 15.4219C5.58504 16.4261 3.97114 17.0247 2.21685 17.0247C1.91496 17.0247 1.61678 17.0069 1.32378 16.9721C2.98102 18.0348 4.94867 18.6542 7.06263 18.6542C13.949 18.6542 17.7143 12.9498 17.7143 8.00247C17.7143 7.84023 17.711 7.67836 17.7039 7.5176C18.4351 6.99087 19.07 6.33116 19.5716 5.58032Z" fill="white"/>
</svg>
