<svg width="34" height="34" viewBox="0 0 34 34" fill="none" xmlns="http://www.w3.org/2000/svg">
<circle cx="17" cy="17" r="15" fill="black" stroke="#FFB805" stroke-width="2"/>
<path d="M9.58752 9L17.0918 16.5791L22.9991 10.6504C22.3203 10.61 21.6394 10.6162 20.9615 10.6691C20.4009 10.7276 19.8811 10.9891 19.4999 11.4042C19.1187 11.8194 18.9024 12.3596 18.8918 12.9231C18.8918 13.6708 18.4378 14.01 17.9731 14.488C17.8342 12.8696 17.885 11.3875 19.3084 10.354C19.7796 9.96175 20.363 9.72895 20.9748 9.689C22.4223 9.67298 23.8697 9.689 25.2958 9.689L17.8182 17.1372L23.7549 23.13L23.875 23.1086C23.827 22.3234 23.8751 21.5196 23.7121 20.7532C23.6034 20.2547 23.328 19.8081 22.9314 19.4872C22.5347 19.1663 22.0405 18.9902 21.5303 18.9879C20.7505 19.0226 20.422 18.5312 19.9493 18.0345C21.298 17.9678 22.5665 17.9357 23.6107 18.8731C23.946 19.1457 24.2196 19.4864 24.4134 19.8726C24.6073 20.2589 24.7169 20.6819 24.735 21.1137C24.7643 22.5344 24.735 23.9552 24.735 25.44L17.2894 17.933L11.3581 23.8564C12.0593 23.8924 12.762 23.8871 13.4625 23.8403C14.5147 23.7175 15.4761 22.684 15.4414 21.6478C15.412 20.8466 15.8927 20.4995 16.3975 20.0321C16.5443 21.6558 16.4402 23.138 15.0168 24.1768C14.4216 24.6273 13.6935 24.8669 12.9471 24.8578C11.6465 24.8418 10.346 24.8578 9 24.8578L16.515 17.3802L10.6104 11.4623C9.99612 13.0032 10.7733 14.95 12.226 15.4254C12.4153 15.5115 12.6217 15.5535 12.8296 15.5482C13.588 15.4254 13.9218 15.9782 14.3945 16.4536C12.9898 16.5417 11.6706 16.5817 10.6104 15.5295C10.0018 14.9696 9.63814 14.1924 9.5982 13.3664C9.55548 11.9617 9.58752 10.5516 9.58752 9Z" fill="white"/>
<path d="M16.3975 14.496C15.9008 14.018 15.4147 13.6762 15.4334 12.8937C15.4628 11.6866 14.3171 10.6718 13.0299 10.621C12.7629 10.621 12.4958 10.621 12.2047 10.621V9.689C12.7232 9.60586 13.2534 9.63153 13.7614 9.76441C14.2694 9.89728 14.7443 10.1344 15.1557 10.4608C16.4536 11.4943 16.5203 12.9257 16.3975 14.496Z" fill="white"/>
<path d="M9.60089 22.2193C9.30713 19.4339 11.1739 17.5992 14.3946 18.0639C13.9219 18.4912 13.6281 19.0013 12.8617 18.9826C11.6385 18.9505 10.621 20.0054 10.5463 21.2312C10.5249 21.5543 10.5463 21.8775 10.5463 22.2193H9.60089Z" fill="white"/>
<path d="M22.1045 24.8071C20.0214 25.1703 17.4497 23.8323 17.9758 20.0401C18.4004 20.4914 18.8837 20.7692 18.8837 21.5169C18.8837 22.8789 20.0027 23.8724 21.3674 23.8777H22.1045V24.8071Z" fill="white"/>
<path d="M23.8217 12.2955H24.6683C25.4 14.8111 23.066 16.8782 19.9628 16.4348C20.4141 15.9969 20.7372 15.5509 21.4903 15.5322C22.8764 15.4975 23.8137 14.3919 23.8217 13.0032V12.2955Z" fill="white"/>
</svg>
